<svg width="64" height="492" viewBox="0 0 64 492" fill="none" xmlns="http://www.w3.org/2000/svg">
<g clip-path="url(#clip0_2_43)">
<path d="M39.3505 41.9969C38.1891 41.9969 36.9599 41.711 35.6879 41.4136C34.3804 41.1089 33.0385 40.7927 31.7101 40.7927C30.3808 40.7927 29.0754 41.1162 27.8128 41.4292C25.2176 42.0741 22.7686 42.6845 20.6733 40.1155L20.522 39.8963L20.5616 39.6459C21.147 35.7464 23.1432 32.6087 26.1797 30.816L26.5616 30.5906L26.8705 30.9172C27.5234 31.6269 28.3161 32.1938 29.1988 32.5822C30.0814 32.9706 31.0349 33.1722 31.9992 33.1743C33.939 33.1743 35.7933 32.3583 37.1268 30.9172L37.4305 30.5906L37.8176 30.816C40.8573 32.6139 42.8534 35.7496 43.4388 39.6449L43.4785 39.913L43.3136 40.1155C42.8514 40.7229 42.2504 41.2108 41.5609 41.5381C40.8713 41.8655 40.1134 42.0228 39.3505 41.9969ZM31.7227 40.271C33.1094 40.271 34.4848 40.5923 35.8141 40.9054C38.6023 41.5576 41.0117 42.1221 42.9192 39.7816L42.9369 39.7607V39.7357C42.3745 35.9896 40.4681 32.9937 37.5672 31.2783L37.5296 31.2574L37.5014 31.2887C36.8006 32.0462 35.9511 32.651 35.006 33.0654C34.0609 33.4797 33.0405 33.6948 32.0086 33.697C30.9765 33.6951 29.956 33.4802 29.0107 33.066C28.0654 32.6518 27.2157 32.0471 26.5147 31.2897L26.4834 31.2574L26.4468 31.2783C23.5303 32.9937 21.6228 35.9948 21.0625 39.7357V39.7628L21.0813 39.7837C22.9679 42.0981 25.1623 41.5523 27.7053 40.921C28.9846 40.6028 30.314 40.271 31.7227 40.271ZM31.9971 32.1694C28.1717 32.1694 25.0705 28.9972 25.0705 25.0842C25.0705 21.1711 28.1717 18 31.9971 18C35.8235 18 38.9248 21.1722 38.9248 25.0852C38.9195 28.9962 35.8214 32.1652 31.9971 32.1704V32.1694ZM31.9971 18.5249C29.402 18.5249 27.0615 20.1235 26.0701 22.5767C25.0757 25.0289 25.6256 27.8525 27.4611 29.7287C28.3474 30.6434 29.4896 31.2686 30.7377 31.5223C31.9858 31.7759 33.2815 31.6461 34.4545 31.1499C36.8524 30.1336 38.4155 27.7398 38.4145 25.0852C38.4114 21.4612 35.5408 18.5238 31.9971 18.5186V18.5249Z" fill="black"/>
</g>
<g clip-path="url(#clip1_2_43)">
<path d="M28.7252 66C23.9128 66 20 69.9074 20 74.7135C20 79.5197 23.9128 83.4271 28.7252 83.4271C31.0222 83.4271 33.1032 82.529 34.6555 81.1014L43.4735 89.9071C43.5355 89.969 43.6284 90 43.6903 90C43.7523 90 43.8452 89.969 43.9071 89.9071C44.031 89.7832 44.031 89.5966 43.9071 89.4735L35.0898 80.6346C36.5492 79.0839 37.4186 77.0067 37.4186 74.712C37.4503 69.9066 33.5375 66 28.7252 66ZM34.5308 80.3566C34.4999 80.3566 34.4689 80.3876 34.4379 80.4186C34.4062 80.4495 34.4062 80.4805 34.376 80.5115C32.867 81.9889 30.837 82.813 28.7252 82.8054C24.2534 82.8054 20.6209 79.1783 20.6209 74.7135C20.6209 70.248 24.2534 66.6194 28.7252 66.6194C33.1954 66.6194 36.8294 70.2465 36.8294 74.7128C36.8347 76.8226 36.0089 78.8496 34.5308 80.3551V80.3566Z" fill="black"/>
<path fill-rule="evenodd" clip-rule="evenodd" d="M28.0607 68.3225C27.8687 68.3225 27.7417 68.4495 27.7417 68.6415C27.7417 68.8327 27.8687 68.9597 28.0607 68.9597C31.7876 68.9597 34.8465 71.9868 34.8465 75.7455C34.8465 75.9375 34.9734 76.0644 35.1647 76.0644C35.3567 76.0644 35.4836 75.9375 35.4836 75.7455C35.4821 71.6678 32.1376 68.3225 28.0607 68.3225Z" fill="black"/>
</g>
<g clip-path="url(#clip2_2_43)">
<path fill-rule="evenodd" clip-rule="evenodd" d="M23.153 115H40.847L43 137H21L23.153 115Z" stroke="black" stroke-width="0.5" stroke-linecap="round" stroke-linejoin="round"/>
<path d="M27.0469 118C27.0469 118 26.1209 126.098 32.4999 126C38.8799 125.9 37.9529 118 37.9529 118" stroke="black" stroke-width="0.5" stroke-linecap="round" stroke-linejoin="round"/>
</g>
<path fill-rule="evenodd" clip-rule="evenodd" d="M23.153 163H40.847L43 185H21L23.153 163Z" stroke="black" stroke-width="0.5" stroke-linecap="round" stroke-linejoin="round"/>
<path d="M27.0469 166C27.0469 166 26.1209 174.098 32.4999 174C38.8799 173.9 37.9529 166 37.9529 166" stroke="black" stroke-width="0.5" stroke-linecap="round" stroke-linejoin="round"/>
<circle cx="22" cy="164" r="8" fill="black"/>
<path d="M22.92 167V160H21.79C21.75 160.267 21.6667 160.49 21.54 160.67C21.4133 160.85 21.2567 160.997 21.07 161.11C20.89 161.217 20.6833 161.293 20.45 161.34C20.2233 161.38 19.9867 161.397 19.74 161.39V162.46H21.5V167H22.92Z" fill="white"/>
<g clip-path="url(#clip3_2_43)">
<path fill-rule="evenodd" clip-rule="evenodd" d="M20.1568 213.172C20.268 213.062 20.418 213 20.5743 213C20.7306 213 20.8807 213.062 20.9918 213.172L29.8208 221.6C29.8772 221.65 29.9223 221.712 29.9532 221.781C29.9841 221.85 30.0001 221.924 30.0001 222C30.0001 222.075 29.9841 222.15 29.9532 222.219C29.9223 222.288 29.8772 222.35 29.8208 222.4L21.0208 230.828C20.9094 230.937 20.7599 230.999 20.6038 231C20.4477 230.999 20.2981 230.938 20.1868 230.828C20.1305 230.778 20.0854 230.716 20.0545 230.647C20.0236 230.578 20.0076 230.503 20.0076 230.428C20.0076 230.352 20.0236 230.278 20.0545 230.209C20.0854 230.14 20.1305 230.078 20.1868 230.028L28.5378 221.999L20.1548 213.97C20.0549 213.861 19.9996 213.718 20 213.57C20.0004 213.422 20.0564 213.28 20.1568 213.171V213.172ZM34.1568 213.172C34.268 213.062 34.418 213 34.5743 213C34.7306 213 34.8807 213.062 34.9918 213.172L43.8208 221.6C43.8772 221.65 43.9223 221.712 43.9532 221.781C43.9841 221.85 44.0001 221.924 44.0001 222C44.0001 222.075 43.9841 222.15 43.9532 222.219C43.9223 222.288 43.8772 222.35 43.8208 222.4L35.0208 230.828C34.9094 230.937 34.7599 230.999 34.6038 231C34.4477 230.999 34.2981 230.938 34.1868 230.828C34.1305 230.778 34.0854 230.716 34.0545 230.647C34.0236 230.578 34.0076 230.503 34.0076 230.428C34.0076 230.352 34.0236 230.278 34.0545 230.209C34.0854 230.14 34.1305 230.078 34.1868 230.028L42.5378 221.999L34.1548 213.97C34.0549 213.861 33.9996 213.718 34 213.57C34.0004 213.422 34.0564 213.28 34.1568 213.171V213.172Z" fill="black"/>
</g>
<path fill-rule="evenodd" clip-rule="evenodd" d="M40.8285 265.157C40.9384 265.268 41 265.418 41 265.574C41 265.73 40.9384 265.88 40.8285 265.992L32.4005 274.821C32.3502 274.877 32.2886 274.922 32.2197 274.953C32.1507 274.984 32.0761 275 32.0005 275C31.925 275 31.8503 274.984 31.7814 274.953C31.7124 274.922 31.6508 274.877 31.6005 274.821L23.1725 266.021C23.0633 265.909 23.0016 265.76 23.0005 265.604C23.0012 265.447 23.063 265.298 23.1725 265.187C23.2228 265.13 23.2844 265.085 23.3534 265.054C23.4223 265.023 23.497 265.007 23.5725 265.007C23.6481 265.007 23.7227 265.023 23.7917 265.054C23.8606 265.085 23.9222 265.13 23.9725 265.187L32.0015 273.538L40.0305 265.155C40.1397 265.055 40.2824 264.999 40.4304 265C40.5784 265 40.7209 265.056 40.8295 265.157L40.8285 265.157Z" fill="black"/>
<path d="M26.2952 315.63V313.45C26.2952 312.071 26.8432 310.748 27.8184 309.773C28.7937 308.797 30.1165 308.25 31.4957 308.25C32.875 308.25 34.1978 308.797 35.1731 309.773C36.1483 310.748 36.6962 312.071 36.6962 313.45V315.63M24.5852 315.63H38.4152C38.667 315.63 38.9084 315.73 39.0863 315.909C39.2643 316.087 39.3642 316.328 39.3642 316.58V326.8C39.3642 327.052 39.2642 327.293 39.0862 327.472C38.9081 327.65 38.6666 327.75 38.4147 327.75H24.5857C24.3338 327.75 24.0922 327.65 23.914 327.472C23.7358 327.294 23.6357 327.052 23.6357 326.8V316.58C23.6357 316.328 23.7358 316.086 23.914 315.908C24.0922 315.73 24.3338 315.63 24.5857 315.63H24.5852Z" stroke="white" stroke-linecap="round" stroke-linejoin="round"/>
<path d="M31.4955 323.707C32.6095 323.707 33.5125 322.804 33.5125 321.69C33.5125 320.576 32.6095 319.673 31.4955 319.673C30.3816 319.673 29.4785 320.576 29.4785 321.69C29.4785 322.804 30.3816 323.707 31.4955 323.707Z" stroke="white" stroke-linecap="round" stroke-linejoin="round"/>
<path d="M39.3334 358.5L24.5 373.333M24.5 358.5L39.3334 373.333L24.5 358.5Z" stroke="white" stroke-width="1.5" stroke-linecap="round" stroke-linejoin="round"/>
<path d="M39.3334 406.5L24.5 421.333M24.5 406.5L39.3334 421.333L24.5 406.5Z" stroke="black" stroke-linecap="round" stroke-linejoin="round"/>
<path d="M24.0098 453.89H39.3498V471C39.3498 471.966 38.5663 472.75 37.5998 472.75H25.7598C24.7933 472.75 24.0098 471.966 24.0098 471V453.89Z" stroke="black" stroke-width="0.5"/>
<path d="M29.9199 460.68V468.6M33.4399 460.68V468.6" stroke="black" stroke-width="0.5"/>
<path d="M22 453.2H41.36" stroke="black" stroke-width="0.5"/>
<path d="M28.1602 452.76L28.8802 451.8C29.2579 451.296 29.8506 451 30.4802 451H32.4402C33.0697 451 33.6624 451.296 34.0402 451.8L34.7602 452.76" stroke="black" stroke-width="0.5"/>
<rect x="0.5" y="0.5" width="63" height="491" rx="4.5" stroke="#7B61FF" stroke-dasharray="10 5"/>
<defs>
<clipPath id="clip0_2_43">
<rect width="24" height="24" fill="white" transform="translate(20 18)"/>
</clipPath>
<clipPath id="clip1_2_43">
<rect width="24" height="24" fill="white" transform="translate(20 66)"/>
</clipPath>
<clipPath id="clip2_2_43">
<rect width="24" height="24" fill="white" transform="translate(20 114)"/>
</clipPath>
<clipPath id="clip3_2_43">
<rect width="24" height="24" fill="white" transform="translate(20 210)"/>
</clipPath>
</defs>
</svg>
